<svg xmlns="http://www.w3.org/2000/svg" width="66.832" height="66.832" viewBox="0 0 66.832 66.832">
  <path id="Tracé_75566" data-name="Tracé 75566" d="M52.416,19A33.416,33.416,0,1,0,85.832,52.416,33.416,33.416,0,0,0,52.416,19Zm31.26,33.416v.248l-1.94-1.326-1.38.41-2.889,4.98-7.19.927L68.65,54.313l.938-5.788,7.093-6.274.194-1.434-2.156-3.234-.668-.464-4.678-.959-.614-2.07L72.9,28.852A31.185,31.185,0,0,1,83.676,52.416Zm-35.949-30.9,1.768,3.622.356.464,3.492,2.609-3.352,5.012-5.778-.959-1.143.582-1.811,3.6-6.769-.959-1.078.582-3.234,6.468.2,1.24,5.39,5.39,1.358.129,5.9-3.913L47.781,48.1l.345.129L53,49.2l3,5.961L58.7,58.883l-5.67,4.711-.366.614-1.078,5.217L48.643,75.29l-2.695.636-1.94-9.615-.216-.388-4.236-6.327-3.234-8.462-.528-.582-6.133-3.094-3.115-4.085-1.078-.4-3.018.571A31.346,31.346,0,0,1,47.727,21.512Zm4.689,62.164A31.26,31.26,0,0,1,21.857,45.83l3.428-.593,2.8,3.719.377.313,6.08,3.029,3.083,8.181,4.312,6.468,2.156,10.51,1.315.83,4.312-1.078.7-.561,3.234-6.468,1.078-5.26L60.9,59.81l.14-1.434L57.87,54.162l-3.234-6.338-.755-.571-5.2-1.078-5.228-3.115H42.3l-5.681,3.859-4.215-4.2,2.533-5.045,6.769.959,1.078-.582,1.8-3.579,5.681.938,1.078-.464,4.312-6.468-.226-1.391-4.1-3.029-1.531-2.781a19.29,19.29,0,0,1,2.609-.119,31.1,31.1,0,0,1,18.842,6.338l-4.452,5.519-.259,1.078,1.078,3.234.8.722,4.851,1,1.347,2.091-6.672,5.9-.356.647-1.078,6.532.1.668L68.768,59.2l1.078.593,8.44-1.078.776-.517,2.662-4.57,1.908.981A31.261,31.261,0,0,1,52.416,83.676Z" transform="translate(-19 -19)" fill="#ea5c0b"/>
</svg>
