<svg id="LOGO" xmlns="http://www.w3.org/2000/svg" width="215.823" height="60.057" viewBox="0 0 215.823 60.057">
  <g id="Groupe_136" data-name="Groupe 136">
    <path id="Tracé_75510" data-name="Tracé 75510" d="M293.693,290.871c-1.282,0-1.878-.616-1.878-2.1V258.751H284.67c-1.328,0-1.878-.667-1.878-2.1v-.616c0-1.488.55-2.1,1.878-2.1h19.924c1.283,0,1.832.616,1.832,2.1v.616c0,1.437-.549,2.1-1.832,2.1h-7.008v30.016c0,1.488-.6,2.1-1.878,2.1Z" transform="translate(-282.792 -253.415)" fill="#fff"/>
    <path id="Tracé_75511" data-name="Tracé 75511" d="M464.71,285.792c1.283,0,1.878.616,1.878,2.1v.872c0,1.488-.6,2.1-1.878,2.1h-7.237c-7.512,0-10.993-3.848-10.993-12.058V256.032c0-1.488.6-2.1,1.878-2.1h2.015c1.283,0,1.878.616,1.878,2.1v21.294c0,5.9,2.2,8.466,7.649,8.466Z" transform="translate(-419.868 -253.415)" fill="#fff"/>
    <path id="Tracé_75512" data-name="Tracé 75512" d="M602.492,254.7c-.183,1.59-.641,2-1.741,1.847a42.488,42.488,0,0,0-7.191-.667c-3.71,0-6.321.821-6.321,4.669,0,8.056,16.123,2.925,16.123,17.753,0,7.748-4.718,10.775-12.5,10.775a49.477,49.477,0,0,1-8.061-.719c-1.283-.154-1.649-.821-1.649-2.1v-.821c0-1.437.733-1.9,1.924-1.8a57.5,57.5,0,0,0,7.741.667c6,0,6.962-3.078,6.962-5.593,0-9.749-16.077-5.234-16.077-17.65,0-8.107,5.5-9.954,11.863-9.954a35.343,35.343,0,0,1,7.649.821c.87.205,1.6.513,1.374,1.95Z" transform="translate(-532.643 -251.11)" fill="#fff"/>
    <path id="Tracé_75513" data-name="Tracé 75513" d="M759.072,306.847c-.092.718-.229.924-.779.872a27.546,27.546,0,0,0-4.58-.359c-5.542,0-7.878,3.9-7.878,10.98v.872c0,7.235,2.473,10.929,8.107,10.929a24.683,24.683,0,0,0,4.489-.41c.6-.1.687.564.733.923l.092.616c.092.719-.137.924-.779,1.026a29.732,29.732,0,0,1-5.13.565c-7.6,0-10.764-4.721-10.764-13.751v-.77c0-8.774,3.252-13.7,10.535-13.7a24.2,24.2,0,0,1,5.313.513c.549.1.87.308.779,1.077Z" transform="translate(-667.833 -294.892)" fill="#fff"/>
    <path id="Tracé_75514" data-name="Tracé 75514" d="M870.49,318.289c0-8.62,3.573-13.648,10.627-13.648s10.626,5.028,10.626,13.648v.872c0,8.569-3.573,13.7-10.626,13.7s-10.627-5.131-10.627-13.7Zm18,0c0-6.927-2.428-10.929-7.374-10.929-4.993,0-7.374,4-7.374,10.929v.872c0,6.773,2.382,10.98,7.374,10.98,4.947,0,7.374-4.208,7.374-10.98Z" transform="translate(-774.945 -294.892)" fill="#fff"/>
    <path id="Tracé_75515" data-name="Tracé 75515" d="M1053.661,331.219c0,.77-.321,1.129-.962,1.129h-1.053c-.687,0-1.008-.359-1.008-1.129V314.544c0-4.208-1.695-7.03-5.863-7.03a18.012,18.012,0,0,0-6.962,1.642v22.063c0,.77-.321,1.129-1.008,1.129h-1.054c-.687,0-1.008-.359-1.008-1.129V308.387a1.729,1.729,0,0,1,.962-1.642,22.827,22.827,0,0,1,9.3-2.1c6.138,0,8.657,3.746,8.657,9.492Z" transform="translate(-912.496 -294.892)" fill="#fff"/>
    <path id="Tracé_75516" data-name="Tracé 75516" d="M1179.114,283.909h-1.649c-.687,0-1.008-.359-1.008-1.129v-.462c0-.769.321-1.129,1.008-1.129h1.649v-4.721c0-.77.321-1.129,1.008-1.129h1.053c.687,0,1.008.359,1.008,1.129v4.721h4.351c.733,0,1.008.359,1.008,1.129v.462c0,.77-.275,1.129-1.008,1.129h-4.351v17.5c0,2.514.733,4.259,3.161,4.259a8.742,8.742,0,0,0,2.336-.359c.412-.051.687.359.687,1.078v.513c0,.77-.046.975-.779,1.078a7.452,7.452,0,0,1-2.565.41c-4.214,0-5.909-2.36-5.909-6.978Z" transform="translate(-1031.17 -270.927)" fill="#fff"/>
    <path id="Tracé_75517" data-name="Tracé 75517" d="M1279.97,318.033v-5.439c0-3.13-1.374-5.234-5.863-5.234a39.385,39.385,0,0,0-6.962.821c-.779.154-.87-.051-1.053-.872L1266,306.9c-.183-.924.137-1.18.824-1.334a38.583,38.583,0,0,1,7.97-.923c6.138,0,8.245,2.719,8.245,7.953v17.5c0,.821-.137,1.078-1.008,1.334a20.668,20.668,0,0,1-7.924,1.437c-5.68,0-10.031-1.8-10.031-7.8v-.718c0-4.874,3.252-7.594,9.069-7.594A18.9,18.9,0,0,1,1279.97,318.033Zm-12.642,6.875c0,4,2.519,5.49,6.962,5.49a15.29,15.29,0,0,0,5.68-.975V320.5a13.218,13.218,0,0,0-6.092-1.334c-4.4,0-6.55,1.9-6.55,5.388Z" transform="translate(-1104.545 -294.892)" fill="#fff"/>
    <path id="Tracé_75518" data-name="Tracé 75518" d="M1430.728,306.847c-.091.718-.229.924-.779.872a27.548,27.548,0,0,0-4.58-.359c-5.542,0-7.878,3.9-7.878,10.98v.872c0,7.235,2.473,10.929,8.107,10.929a24.682,24.682,0,0,0,4.489-.41c.6-.1.687.564.733.923l.092.616c.092.719-.137.924-.779,1.026a29.729,29.729,0,0,1-5.13.565c-7.6,0-10.764-4.721-10.764-13.751v-.77c0-8.774,3.252-13.7,10.535-13.7a24.2,24.2,0,0,1,5.313.513c.55.1.87.308.779,1.077Z" transform="translate(-1230.295 -294.892)" fill="#fff"/>
    <path id="Tracé_75519" data-name="Tracé 75519" d="M1536.632,283.909h-1.649c-.687,0-1.008-.359-1.008-1.129v-.462c0-.769.321-1.129,1.008-1.129h1.649v-4.721c0-.77.321-1.129,1.008-1.129h1.054c.687,0,1.007.359,1.007,1.129v4.721h4.351c.733,0,1.008.359,1.008,1.129v.462c0,.77-.275,1.129-1.008,1.129H1539.7v17.5c0,2.514.733,4.259,3.161,4.259a8.742,8.742,0,0,0,2.336-.359c.412-.051.687.359.687,1.078v.513c0,.77-.046.975-.779,1.078a7.454,7.454,0,0,1-2.565.41c-4.214,0-5.909-2.36-5.909-6.978Z" transform="translate(-1330.565 -270.927)" fill="#fff"/>
  </g>
  <g id="Groupe_137" data-name="Groupe 137" transform="translate(74.746 49.075)">
    <path id="Tracé_75520" data-name="Tracé 75520" d="M747.7,531.293l-.507-1.858h-2.536l-.507,1.858h-1.59l2.458-7.835h1.8l2.468,7.835Zm-.858-3.245-.507-1.814q-.049-.185-.127-.47t-.156-.579q-.078-.3-.127-.514-.049.219-.132.541t-.156.612q-.073.29-.112.41l-.5,1.814Z" transform="translate(-742.559 -522.933)" fill="#fff"/>
    <path id="Tracé_75521" data-name="Tracé 75521" d="M804.123,531.44H802.65v-6.425h-1.892v-1.377h5.258v1.377h-1.892Z" transform="translate(-791.296 -523.081)" fill="#fff"/>
    <path id="Tracé_75522" data-name="Tracé 75522" d="M839.515,533.117a2.248,2.248,0,0,1,1.746.7,2.869,2.869,0,0,1,.644,2.005v.787h-3.434a1.655,1.655,0,0,0,.366,1.082,1.214,1.214,0,0,0,.961.393,3.551,3.551,0,0,0,.932-.115,4.145,4.145,0,0,0,.873-.355v1.256a3.379,3.379,0,0,1-.829.323,4.513,4.513,0,0,1-1.044.1,2.918,2.918,0,0,1-1.414-.333,2.338,2.338,0,0,1-.966-1.005,3.676,3.676,0,0,1-.351-1.71,4.208,4.208,0,0,1,.317-1.737,2.312,2.312,0,0,1,.883-1.049A2.455,2.455,0,0,1,839.515,533.117Zm.01,1.159a.9.9,0,0,0-.7.306,1.587,1.587,0,0,0-.322.951h2.039a1.6,1.6,0,0,0-.258-.9A.856.856,0,0,0,839.524,534.276Z" transform="translate(-821.645 -530.833)" fill="#fff"/>
    <path id="Tracé_75523" data-name="Tracé 75523" d="M875.891,529.183h-1.453v-8.3h1.453Z" transform="translate(-852.998 -520.823)" fill="#fff"/>
    <path id="Tracé_75524" data-name="Tracé 75524" d="M893.274,533.117a2.249,2.249,0,0,1,1.746.7,2.869,2.869,0,0,1,.644,2.005v.787H892.23a1.656,1.656,0,0,0,.366,1.082,1.214,1.214,0,0,0,.961.393,3.55,3.55,0,0,0,.931-.115,4.143,4.143,0,0,0,.873-.355v1.256a3.382,3.382,0,0,1-.829.323,4.511,4.511,0,0,1-1.044.1,2.919,2.919,0,0,1-1.415-.333,2.338,2.338,0,0,1-.966-1.005,3.679,3.679,0,0,1-.351-1.71,4.2,4.2,0,0,1,.317-1.737,2.31,2.31,0,0,1,.883-1.049A2.455,2.455,0,0,1,893.274,533.117Zm.01,1.159a.9.9,0,0,0-.7.306,1.585,1.585,0,0,0-.322.951H894.3a1.6,1.6,0,0,0-.258-.9A.857.857,0,0,0,893.283,534.276Z" transform="translate(-866.664 -530.833)" fill="#fff"/>
    <path id="Tracé_75525" data-name="Tracé 75525" d="M931.161,533.117a1.708,1.708,0,0,1,1.453.781,3.957,3.957,0,0,1,.556,2.3,3.9,3.9,0,0,1-.576,2.317,1.753,1.753,0,0,1-1.473.787,1.59,1.59,0,0,1-.917-.235,2.256,2.256,0,0,1-.556-.53h-.078a5.223,5.223,0,0,1,.078.874v2.4H928.2v-8.589h1.18l.2.776h.068a2.083,2.083,0,0,1,.576-.623A1.555,1.555,0,0,1,931.161,533.117Zm-.468,1.3a.852.852,0,0,0-.8.4,2.478,2.478,0,0,0-.244,1.2v.175a3.076,3.076,0,0,0,.229,1.328.846.846,0,0,0,.834.464.78.78,0,0,0,.736-.464,2.994,2.994,0,0,0,.239-1.338Q931.688,534.418,930.693,534.418Z" transform="translate(-898.016 -530.833)" fill="#fff"/>
    <path id="Tracé_75526" data-name="Tracé 75526" d="M966.713,533.117a2.248,2.248,0,0,1,1.746.7,2.868,2.868,0,0,1,.644,2.005v.787h-3.434a1.656,1.656,0,0,0,.366,1.082,1.214,1.214,0,0,0,.961.393,3.55,3.55,0,0,0,.932-.115,4.146,4.146,0,0,0,.873-.355v1.256a3.377,3.377,0,0,1-.829.323,4.512,4.512,0,0,1-1.044.1,2.918,2.918,0,0,1-1.414-.333,2.339,2.339,0,0,1-.966-1.005,3.677,3.677,0,0,1-.351-1.71,4.2,4.2,0,0,1,.317-1.737,2.311,2.311,0,0,1,.883-1.049A2.455,2.455,0,0,1,966.713,533.117Zm.01,1.159a.9.9,0,0,0-.7.306,1.587,1.587,0,0,0-.322.951h2.039a1.6,1.6,0,0,0-.258-.9A.857.857,0,0,0,966.722,534.276Z" transform="translate(-928.163 -530.833)" fill="#fff"/>
    <path id="Tracé_75527" data-name="Tracé 75527" d="M1004.611,533.117c.072,0,.156,0,.254.011a1.477,1.477,0,0,1,.234.033l-.107,1.53a1.463,1.463,0,0,0-.2-.038,1.746,1.746,0,0,0-.224-.016,1.778,1.778,0,0,0-.712.148,1.216,1.216,0,0,0-.551.475,1.649,1.649,0,0,0-.21.9v3.038h-1.453v-5.966h1.1l.214,1.005h.068a2.386,2.386,0,0,1,.644-.787A1.47,1.47,0,0,1,1004.611,533.117Z" transform="translate(-959.517 -530.833)" fill="#fff"/>
    <path id="Tracé_75528" data-name="Tracé 75528" d="M1028.907,524.194h-1.258v4.742h-1.453v-4.742h-.8v-.787l.8-.437v-.437a2.512,2.512,0,0,1,.229-1.185,1.29,1.29,0,0,1,.654-.6,2.619,2.619,0,0,1,1-.175,3.638,3.638,0,0,1,.771.076,2.838,2.838,0,0,1,.566.175l-.37,1.191q-.166-.054-.366-.1a1.85,1.85,0,0,0-.444-.049.5.5,0,0,0-.444.208.912.912,0,0,0-.141.524v.372h1.258Z" transform="translate(-979.413 -520.577)" fill="#fff"/>
    <path id="Tracé_75529" data-name="Tracé 75529" d="M1055.275,536.2a3.409,3.409,0,0,1-.7,2.295,2.374,2.374,0,0,1-1.9.808,2.371,2.371,0,0,1-2.234-1.415,3.892,3.892,0,0,1-.332-1.688,3.381,3.381,0,0,1,.693-2.284,2.388,2.388,0,0,1,1.9-.8,2.366,2.366,0,0,1,2.234,1.41A3.83,3.83,0,0,1,1055.275,536.2Zm-3.677,0a2.758,2.758,0,0,0,.259,1.339,1,1,0,0,0,1.678,0,2.761,2.761,0,0,0,.259-1.339,2.7,2.7,0,0,0-.259-1.328.9.9,0,0,0-.844-.443.892.892,0,0,0-.834.443A2.692,2.692,0,0,0,1051.6,536.2Z" transform="translate(-1000.114 -530.833)" fill="#fff"/>
    <path id="Tracé_75530" data-name="Tracé 75530" d="M1092.209,533.117c.072,0,.156,0,.254.011a1.481,1.481,0,0,1,.234.033l-.107,1.53a1.459,1.459,0,0,0-.2-.038,1.744,1.744,0,0,0-.224-.016,1.776,1.776,0,0,0-.712.148,1.218,1.218,0,0,0-.551.475,1.65,1.65,0,0,0-.21.9v3.038h-1.453v-5.966h1.1l.215,1.005h.068a2.385,2.385,0,0,1,.644-.787A1.471,1.471,0,0,1,1092.209,533.117Z" transform="translate(-1032.874 -530.833)" fill="#fff"/>
    <path id="Tracé_75531" data-name="Tracé 75531" d="M1122.727,533.117a1.742,1.742,0,0,1,1.37.519,2.466,2.466,0,0,1,.463,1.666v3.89h-1.453v-3.486q0-1.289-.8-1.289a.853.853,0,0,0-.819.459,2.876,2.876,0,0,0-.244,1.322v2.994h-1.453v-3.486q0-1.289-.8-1.289a.835.835,0,0,0-.834.508,3.663,3.663,0,0,0-.229,1.459v2.808h-1.453v-5.966h1.112l.195.765h.078a1.493,1.493,0,0,1,.668-.667,1.985,1.985,0,0,1,.883-.208,2.108,2.108,0,0,1,.99.213,1.463,1.463,0,0,1,.629.661h.127a1.481,1.481,0,0,1,.678-.667A2.046,2.046,0,0,1,1122.727,533.117Z" transform="translate(-1055.685 -530.833)" fill="#fff"/>
    <path id="Tracé_75532" data-name="Tracé 75532" d="M1175.77,533.058a2.362,2.362,0,0,1,1.644.519,2.046,2.046,0,0,1,.571,1.59v3.977h-1.014l-.283-.809h-.039a2.357,2.357,0,0,1-.722.7,2.1,2.1,0,0,1-1.044.218,1.618,1.618,0,0,1-1.18-.459,1.929,1.929,0,0,1-.468-1.432,1.637,1.637,0,0,1,.595-1.4,3.2,3.2,0,0,1,1.785-.5l.927-.033v-.262a.939.939,0,0,0-.219-.689.828.828,0,0,0-.61-.219,2.351,2.351,0,0,0-.761.126,5.811,5.811,0,0,0-.741.311l-.478-1.1a4.145,4.145,0,0,1,.946-.388A4.027,4.027,0,0,1,1175.77,533.058Zm.771,3.322-.566.022a1.475,1.475,0,0,0-.975.284.911.911,0,0,0-.273.688.645.645,0,0,0,.2.53.779.779,0,0,0,.507.158,1.092,1.092,0,0,0,.79-.311,1.167,1.167,0,0,0,.322-.88Z" transform="translate(-1103.218 -530.785)" fill="#fff"/>
    <path id="Tracé_75533" data-name="Tracé 75533" d="M1214.657,533.117a1.855,1.855,0,0,1,1.375.519,2.289,2.289,0,0,1,.517,1.666v3.89H1215.1v-3.486a1.829,1.829,0,0,0-.2-.967.717.717,0,0,0-.653-.322.912.912,0,0,0-.907.508,3.468,3.468,0,0,0-.244,1.459v2.808h-1.453v-5.966h1.112l.2.765h.078a1.524,1.524,0,0,1,.7-.667A2.195,2.195,0,0,1,1214.657,533.117Z" transform="translate(-1135.374 -530.833)" fill="#fff"/>
    <path id="Tracé_75534" data-name="Tracé 75534" d="M1251.56,539.3a2.327,2.327,0,0,1-1.839-.732,3.455,3.455,0,0,1-.649-2.328,4.119,4.119,0,0,1,.332-1.781,2.22,2.22,0,0,1,.922-1.016,2.755,2.755,0,0,1,1.361-.328,3.364,3.364,0,0,1,.951.12,3.7,3.7,0,0,1,.707.284l-.429,1.256q-.342-.153-.639-.251a1.873,1.873,0,0,0-.59-.1q-1.132,0-1.132,1.8a2.336,2.336,0,0,0,.3,1.322.96.96,0,0,0,.834.426,2.22,2.22,0,0,0,.809-.137,3.033,3.033,0,0,0,.683-.377v1.388a2.21,2.21,0,0,1-.7.344A3.445,3.445,0,0,1,1251.56,539.3Z" transform="translate(-1166.727 -530.833)" fill="#fff"/>
    <path id="Tracé_75535" data-name="Tracé 75535" d="M1282.43,533.117a2.248,2.248,0,0,1,1.746.7,2.869,2.869,0,0,1,.644,2.005v.787h-3.434a1.656,1.656,0,0,0,.366,1.082,1.214,1.214,0,0,0,.961.393,3.548,3.548,0,0,0,.931-.115,4.151,4.151,0,0,0,.873-.355v1.256a3.379,3.379,0,0,1-.829.323,4.511,4.511,0,0,1-1.044.1,2.918,2.918,0,0,1-1.414-.333,2.338,2.338,0,0,1-.966-1.005,3.677,3.677,0,0,1-.351-1.71,4.207,4.207,0,0,1,.317-1.737,2.313,2.313,0,0,1,.883-1.049A2.455,2.455,0,0,1,1282.43,533.117Zm.01,1.159a.9.9,0,0,0-.7.306,1.587,1.587,0,0,0-.322.951h2.039a1.593,1.593,0,0,0-.259-.9A.856.856,0,0,0,1282.439,534.276Z" transform="translate(-1192.553 -530.833)" fill="#fff"/>
    <path id="Tracé_75536" data-name="Tracé 75536" d="M1335.019,524.414a1.444,1.444,0,0,0-1.3.71,3.622,3.622,0,0,0-.449,1.945,3.732,3.732,0,0,0,.415,1.929,1.44,1.44,0,0,0,1.332.683,3.434,3.434,0,0,0,.848-.109,7.65,7.65,0,0,0,.927-.306v1.388a4.552,4.552,0,0,1-.907.306,4.691,4.691,0,0,1-1,.1,2.972,2.972,0,0,1-1.776-.5,2.9,2.9,0,0,1-1.024-1.4,6.086,6.086,0,0,1-.332-2.1,5.359,5.359,0,0,1,.38-2.087,3.214,3.214,0,0,1,1.107-1.421,3.007,3.007,0,0,1,1.78-.514,3.8,3.8,0,0,1,1.039.148,5.165,5.165,0,0,1,1,.4l-.478,1.344a7.21,7.21,0,0,0-.785-.361A2.14,2.14,0,0,0,1335.019,524.414Z" transform="translate(-1235.963 -522.589)" fill="#fff"/>
    <path id="Tracé_75537" data-name="Tracé 75537" d="M1374.351,536.2a3.41,3.41,0,0,1-.7,2.295,2.375,2.375,0,0,1-1.9.808,2.372,2.372,0,0,1-2.234-1.415,3.894,3.894,0,0,1-.332-1.688,3.382,3.382,0,0,1,.693-2.284,2.388,2.388,0,0,1,1.9-.8,2.366,2.366,0,0,1,2.234,1.41A3.83,3.83,0,0,1,1374.351,536.2Zm-3.677,0a2.76,2.76,0,0,0,.258,1.339,1,1,0,0,0,1.678,0,2.761,2.761,0,0,0,.259-1.339,2.7,2.7,0,0,0-.259-1.328.9.9,0,0,0-.844-.443.893.893,0,0,0-.834.443A2.693,2.693,0,0,0,1370.674,536.2Z" transform="translate(-1267.317 -530.833)" fill="#fff"/>
    <path id="Tracé_75538" data-name="Tracé 75538" d="M1414.563,533.117a1.742,1.742,0,0,1,1.37.519,2.465,2.465,0,0,1,.463,1.666v3.89h-1.454v-3.486q0-1.289-.8-1.289a.854.854,0,0,0-.819.459,2.881,2.881,0,0,0-.244,1.322v2.994h-1.453v-3.486q0-1.289-.8-1.289a.836.836,0,0,0-.834.508,3.663,3.663,0,0,0-.229,1.459v2.808h-1.453v-5.966h1.112l.2.765h.078a1.492,1.492,0,0,1,.668-.667,1.986,1.986,0,0,1,.883-.208,2.106,2.106,0,0,1,.99.213,1.46,1.46,0,0,1,.629.661h.127a1.484,1.484,0,0,1,.678-.667A2.047,2.047,0,0,1,1414.563,533.117Z" transform="translate(-1300.076 -530.833)" fill="#fff"/>
    <path id="Tracé_75539" data-name="Tracé 75539" d="M1470.2,533.117a1.708,1.708,0,0,1,1.453.781,3.956,3.956,0,0,1,.556,2.3,3.9,3.9,0,0,1-.576,2.317,1.753,1.753,0,0,1-1.473.787,1.589,1.589,0,0,1-.917-.235,2.251,2.251,0,0,1-.556-.53h-.078a5.236,5.236,0,0,1,.078.874v2.4h-1.454v-8.589h1.18l.2.776h.068a2.078,2.078,0,0,1,.575-.623A1.555,1.555,0,0,1,1470.2,533.117Zm-.468,1.3a.851.851,0,0,0-.8.4,2.477,2.477,0,0,0-.244,1.2v.175a3.076,3.076,0,0,0,.229,1.328.845.845,0,0,0,.834.464.78.78,0,0,0,.737-.464,2.993,2.993,0,0,0,.239-1.338Q1470.722,534.418,1469.727,534.418Z" transform="translate(-1349.417 -530.833)" fill="#fff"/>
    <path id="Tracé_75540" data-name="Tracé 75540" d="M1505.585,533.058a2.362,2.362,0,0,1,1.644.519,2.047,2.047,0,0,1,.571,1.59v3.977h-1.015l-.283-.809h-.039a2.357,2.357,0,0,1-.722.7,2.1,2.1,0,0,1-1.044.218,1.618,1.618,0,0,1-1.18-.459,1.929,1.929,0,0,1-.468-1.432,1.637,1.637,0,0,1,.6-1.4,3.2,3.2,0,0,1,1.785-.5l.927-.033v-.262a.939.939,0,0,0-.219-.689.827.827,0,0,0-.61-.219,2.352,2.352,0,0,0-.761.126,5.824,5.824,0,0,0-.741.311l-.478-1.1a4.15,4.15,0,0,1,.946-.388A4.027,4.027,0,0,1,1505.585,533.058Zm.771,3.322-.566.022a1.476,1.476,0,0,0-.976.284.91.91,0,0,0-.273.688.646.646,0,0,0,.2.53.779.779,0,0,0,.507.158,1.093,1.093,0,0,0,.79-.311,1.167,1.167,0,0,0,.322-.88Z" transform="translate(-1379.413 -530.785)" fill="#fff"/>
    <path id="Tracé_75541" data-name="Tracé 75541" d="M1544.473,533.117a1.856,1.856,0,0,1,1.376.519,2.29,2.29,0,0,1,.517,1.666v3.89h-1.453v-3.486a1.829,1.829,0,0,0-.2-.967.718.718,0,0,0-.654-.322.912.912,0,0,0-.907.508,3.466,3.466,0,0,0-.244,1.459v2.808h-1.453v-5.966h1.112l.2.765h.078a1.522,1.522,0,0,1,.7-.667A2.193,2.193,0,0,1,1544.473,533.117Z" transform="translate(-1411.57 -530.833)" fill="#fff"/>
    <path id="Tracé_75542" data-name="Tracé 75542" d="M1576.188,533.718h1.59l1,3.355a3.531,3.531,0,0,1,.117.5q.038.251.058.535h.029q.029-.284.078-.535a4.677,4.677,0,0,1,.126-.5l.985-3.355h1.561l-2.253,6.731a2.934,2.934,0,0,1-.888,1.393,2.065,2.065,0,0,1-1.336.465,2.886,2.886,0,0,1-.429-.027q-.175-.028-.312-.06v-1.29c.065.015.149.029.254.044a2.324,2.324,0,0,0,.322.022.9.9,0,0,0,.722-.311,2.121,2.121,0,0,0,.4-.749l.088-.295Z" transform="translate(-1440.661 -531.325)" fill="#fff"/>
  </g>
</svg>
