<?xml version="1.0" standalone="no"?>
<!DOCTYPE svg PUBLIC "-//W3C//DTD SVG 20010904//EN"
 "http://www.w3.org/TR/2001/REC-SVG-20010904/DTD/svg10.dtd">
<svg version="1.0" xmlns="http://www.w3.org/2000/svg"
 width="512.000000pt" height="512.000000pt" viewBox="0 0 512.000000 512.000000"
 preserveAspectRatio="xMidYMid meet">
<metadata>
Created by potrace 1.11, written by Peter Selinger 2001-2013
</metadata>
<g transform="translate(0.000000,512.000000) scale(0.100000,-0.100000)"
fill="#000000" stroke="none">
<path d="M3882 3586 c-232 -44 -364 -130 -432 -280 -34 -73 -50 -155 -50 -247
0 -148 42 -252 140 -350 74 -73 178 -130 355 -194 347 -125 454 -203 486 -353
23 -115 -6 -218 -83 -287 -107 -96 -277 -113 -697 -69 -80 8 -157 12 -173 9
-43 -10 -58 -40 -58 -117 0 -82 12 -115 46 -128 58 -22 350 -50 525 -50 249 0
403 29 528 98 159 87 240 216 259 408 23 240 -42 432 -188 553 -85 71 -182
117 -400 191 -206 70 -263 95 -315 142 -104 91 -108 256 -8 350 82 78 298 96
657 52 71 -9 139 -13 153 -9 31 7 52 56 60 138 8 88 -8 100 -162 128 -154 28
-529 36 -643 15z"/>
<path d="M421 3553 c-27 -22 -44 -92 -35 -141 5 -30 27 -86 37 -94 1 -1 117
-4 257 -7 l255 -6 5 -853 5 -854 28 -24 c26 -22 36 -24 147 -24 111 0 121 2
147 24 l28 24 3 856 2 856 240 0 c237 0 239 0 266 24 24 20 28 32 32 90 5 77
-10 124 -45 137 -14 5 -310 9 -688 9 -616 0 -664 -1 -684 -17z"/>
<path d="M2053 3546 l-28 -24 0 -729 c0 -673 1 -734 18 -808 54 -232 193 -369
420 -416 79 -16 137 -19 414 -19 l322 0 28 24 c24 21 28 32 31 94 4 75 -14
133 -46 148 -9 4 -134 11 -277 14 -237 6 -265 8 -316 28 -78 31 -134 74 -170
130 -65 102 -63 78 -69 840 l-5 694 -28 24 c-26 22 -36 24 -147 24 -111 0
-121 -2 -147 -24z"/>
</g>
</svg>
